<svg width="900" height="360" viewBox="0 0 900 360" fill="none" xmlns="http://www.w3.org/2000/svg">
  <rect width="900" height="360" fill="#06111F"/>
  <g font-family="Inter,Arial">
    <rect x="78" y="80" width="210" height="200" rx="26" fill="#0B1B2E" stroke="#67E8F9" stroke-opacity="0.26"/>
    <rect x="345" y="80" width="210" height="200" rx="26" fill="#0B1B2E" stroke="#67E8F9" stroke-opacity="0.34"/>
    <rect x="612" y="80" width="210" height="200" rx="26" fill="#0B1B2E" stroke="#67E8F9" stroke-opacity="0.26"/>
    <circle cx="183" cy="138" r="30" fill="#22D3EE" fill-opacity="0.11" stroke="#67E8F9" stroke-opacity="0.28"/>
    <circle cx="450" cy="138" r="30" fill="#22D3EE" fill-opacity="0.14" stroke="#67E8F9" stroke-opacity="0.36"/>
    <circle cx="717" cy="138" r="30" fill="#22D3EE" fill-opacity="0.11" stroke="#67E8F9" stroke-opacity="0.28"/>
    <text x="183" y="144" text-anchor="middle" fill="#67E8F9" font-size="18" font-weight="900">01</text>
    <text x="450" y="144" text-anchor="middle" fill="#67E8F9" font-size="18" font-weight="900">02</text>
    <text x="717" y="144" text-anchor="middle" fill="#67E8F9" font-size="18" font-weight="900">03</text>
    <text x="183" y="190" text-anchor="middle" fill="#FFFFFF" font-size="20" font-weight="900">Sin ZAP</text>
    <text x="450" y="190" text-anchor="middle" fill="#FFFFFF" font-size="20" font-weight="900">Solo Web</text>
    <text x="717" y="190" text-anchor="middle" fill="#FFFFFF" font-size="20" font-weight="900">Completo</text>
    <text x="183" y="222" text-anchor="middle" fill="#94A3B8" font-size="13">menor impacto relativo</text>
    <text x="450" y="222" text-anchor="middle" fill="#94A3B8" font-size="13">superficie web</text>
    <text x="717" y="222" text-anchor="middle" fill="#94A3B8" font-size="13">con autorización válida</text>
    <rect x="128" y="244" width="110" height="12" rx="6" fill="#67E8F9" fill-opacity="0.24"/>
    <rect x="395" y="244" width="110" height="12" rx="6" fill="#67E8F9" fill-opacity="0.36"/>
    <rect x="662" y="244" width="110" height="12" rx="6" fill="#67E8F9" fill-opacity="0.50"/>
  </g>
</svg>
