<svg width="900" height="420" viewBox="0 0 900 420" fill="none" xmlns="http://www.w3.org/2000/svg">
  <rect width="900" height="420" fill="#06111F"/>
  <circle cx="450" cy="210" r="160" fill="#22D3EE" fill-opacity="0.05"/>
  <circle cx="450" cy="210" r="102" stroke="#67E8F9" stroke-opacity="0.18"/>
  <circle cx="450" cy="210" r="168" stroke="#67E8F9" stroke-opacity="0.11"/>
  <g stroke="#67E8F9" stroke-opacity="0.35" stroke-width="1.4">
    <path d="M450 210L210 110"/><path d="M450 210L690 106"/><path d="M450 210L218 300"/><path d="M450 210L688 306"/>
    <path d="M450 210L450 80"/><path d="M450 210L450 340"/>
  </g>
  <g filter="url(#glow)">
    <rect x="354" y="156" width="192" height="108" rx="24" fill="#0B1B2E" stroke="#67E8F9" stroke-opacity="0.42"/>
    <path d="M450 126L493 142V198C493 230 475 252 450 266C425 252 407 230 407 198V142L450 126Z" fill="#22D3EE" fill-opacity="0.18" stroke="#67E8F9"/>
    <text x="450" y="205" text-anchor="middle" fill="#E0F7FF" font-family="Inter,Arial" font-size="18" font-weight="800">Scope</text>
  </g>
  <g font-family="Inter,Arial" font-size="16" font-weight="700">
    <rect x="108" y="78" width="188" height="56" rx="16" fill="#0B1B2E" stroke="#67E8F9" stroke-opacity="0.28"/><text x="202" y="112" text-anchor="middle" fill="#CBD5E1">dominio.cl</text>
    <rect x="604" y="74" width="188" height="56" rx="16" fill="#0B1B2E" stroke="#67E8F9" stroke-opacity="0.28"/><text x="698" y="108" text-anchor="middle" fill="#CBD5E1">api.cliente.cl</text>
    <rect x="96" y="270" width="218" height="56" rx="16" fill="#0B1B2E" stroke="#67E8F9" stroke-opacity="0.28"/><text x="205" y="304" text-anchor="middle" fill="#CBD5E1">portal público</text>
    <rect x="594" y="276" width="218" height="56" rx="16" fill="#0B1B2E" stroke="#67E8F9" stroke-opacity="0.28"/><text x="703" y="310" text-anchor="middle" fill="#CBD5E1">servicio 443</text>
    <rect x="374" y="42" width="152" height="48" rx="14" fill="#0E263D" stroke="#67E8F9" stroke-opacity="0.22"/><text x="450" y="72" text-anchor="middle" fill="#67E8F9">DNS TXT</text>
    <rect x="370" y="330" width="160" height="48" rx="14" fill="#0E263D" stroke="#67E8F9" stroke-opacity="0.22"/><text x="450" y="360" text-anchor="middle" fill="#67E8F9">Approval</text>
  </g>
  <defs><filter id="glow" x="320" y="94" width="260" height="210" filterUnits="userSpaceOnUse"><feGaussianBlur stdDeviation="6" result="b"/><feMerge><feMergeNode in="b"/><feMergeNode in="SourceGraphic"/></feMerge></filter></defs>
</svg>
