<svg width="920" height="520" viewBox="0 0 920 520" fill="none" xmlns="http://www.w3.org/2000/svg">
<rect width="920" height="520" rx="28" fill="#06111f"/>
<defs><linearGradient id="g" x1="80" y1="50" x2="820" y2="470" gradientUnits="userSpaceOnUse"><stop stop-color="#22d3ee" stop-opacity=".34"/><stop offset="1" stop-color="#0b1b2e" stop-opacity=".1"/></linearGradient><filter id="glow"><feGaussianBlur stdDeviation="5" result="b"/><feMerge><feMergeNode in="b"/><feMergeNode in="SourceGraphic"/></feMerge></filter></defs>
<rect x="28" y="28" width="864" height="464" rx="24" fill="url(#g)" stroke="#67e8f9" stroke-opacity=".22"/>
<text x="64" y="76" fill="#e2e8f0" font-family="Inter, Arial" font-size="26" font-weight="800">Approval Gate</text>
<text x="64" y="108" fill="#94a3b8" font-family="Inter, Arial" font-size="15">Validación previa antes de ejecutar revisiones sensibles</text>
<g filter="url(#glow)">
<rect x="70" y="160" width="185" height="86" rx="18" fill="#0b1b2e" stroke="#67e8f9" stroke-opacity=".35"/>
<text x="100" y="194" fill="#67e8f9" font-family="Inter, Arial" font-size="15" font-weight="800">Scope válido</text>
<text x="100" y="222" fill="#bbf7d0" font-family="Inter, Arial" font-size="26" font-weight="900">OK</text>
<rect x="300" y="160" width="185" height="86" rx="18" fill="#0b1b2e" stroke="#67e8f9" stroke-opacity=".35"/>
<text x="330" y="194" fill="#67e8f9" font-family="Inter, Arial" font-size="15" font-weight="800">Ownership</text>
<text x="330" y="222" fill="#bbf7d0" font-family="Inter, Arial" font-size="26" font-weight="900">Verificado</text>
<rect x="530" y="160" width="185" height="86" rx="18" fill="#0b1b2e" stroke="#67e8f9" stroke-opacity=".35"/>
<text x="560" y="194" fill="#67e8f9" font-family="Inter, Arial" font-size="15" font-weight="800">Approval token</text>
<text x="560" y="222" fill="#bbf7d0" font-family="Inter, Arial" font-size="26" font-weight="900">Vigente</text>
</g>
<path d="M255 203H300M485 203H530M715 203C765 203 775 246 775 272" stroke="#67e8f9" stroke-width="3" stroke-opacity=".55" stroke-linecap="round"/>
<rect x="642" y="292" width="226" height="92" rx="22" fill="#082133" stroke="#22d3ee" stroke-opacity=".48"/>
<text x="682" y="328" fill="#fff" font-family="Inter, Arial" font-size="20" font-weight="900">Scan autorizado</text>
<text x="682" y="356" fill="#94a3b8" font-family="Inter, Arial" font-size="14">Ejecución dentro del alcance</text>
<rect x="70" y="308" width="390" height="76" rx="18" fill="#1b1220" stroke="#f97316" stroke-opacity=".4"/>
<text x="98" y="338" fill="#fed7aa" font-family="Inter, Arial" font-size="17" font-weight="850">Si falta una condición, el scan se bloquea</text>
<text x="98" y="363" fill="#cbd5e1" font-family="Inter, Arial" font-size="13">fail-closed · evidencia · auditoría · revisión técnica</text>
</svg>
