<svg width="920" height="560" viewBox="0 0 920 560" fill="none" xmlns="http://www.w3.org/2000/svg">
  <rect width="920" height="560" rx="32" fill="#06111F"/>
  <defs>
    <linearGradient id="g" x1="0" y1="0" x2="920" y2="560"><stop stop-color="#22D3EE" stop-opacity=".24"/><stop offset="1" stop-color="#0B1B2E" stop-opacity=".2"/></linearGradient>
    <filter id="blur"><feGaussianBlur stdDeviation="28"/></filter>
  </defs>
  <circle cx="172" cy="92" r="78" fill="#22D3EE" opacity=".16" filter="url(#blur)"/>
  <rect x="38" y="38" width="844" height="484" rx="28" fill="url(#g)" stroke="#1D6072"/>
  <text x="70" y="92" fill="#EAFBFF" font-family="Arial, sans-serif" font-size="28" font-weight="800">Modelo de control</text>
  <text x="70" y="126" fill="#94A3B8" font-family="Arial, sans-serif" font-size="16">La ejecución se habilita solo cuando las capas previas están conformes.</text>
  <g transform="translate(76 170)">
    <rect width="150" height="220" rx="24" fill="#0B1B2E" stroke="#22596A"/>
    <text x="24" y="54" fill="#67E8F9" font-family="Arial" font-size="18" font-weight="800">Scope</text>
    <text x="24" y="92" fill="#CBD5E1" font-family="Arial" font-size="14">Activo dentro</text>
    <text x="24" y="114" fill="#CBD5E1" font-family="Arial" font-size="14">del alcance</text>
    <circle cx="112" cy="170" r="22" fill="#0F3C4C" stroke="#22D3EE"/><path d="M102 170l7 7 15-18" stroke="#67E8F9" stroke-width="5" stroke-linecap="round" stroke-linejoin="round"/>
  </g>
  <g transform="translate(242 170)">
    <rect width="150" height="220" rx="24" fill="#0B1B2E" stroke="#22596A"/>
    <text x="24" y="54" fill="#67E8F9" font-family="Arial" font-size="18" font-weight="800">Ownership</text>
    <text x="24" y="92" fill="#CBD5E1" font-family="Arial" font-size="14">Propiedad o</text>
    <text x="24" y="114" fill="#CBD5E1" font-family="Arial" font-size="14">autorización</text>
    <circle cx="112" cy="170" r="22" fill="#0F3C4C" stroke="#22D3EE"/><path d="M102 170l7 7 15-18" stroke="#67E8F9" stroke-width="5" stroke-linecap="round" stroke-linejoin="round"/>
  </g>
  <g transform="translate(408 170)">
    <rect width="150" height="220" rx="24" fill="#0B1B2E" stroke="#22596A"/>
    <text x="24" y="54" fill="#67E8F9" font-family="Arial" font-size="18" font-weight="800">Approval</text>
    <text x="24" y="92" fill="#CBD5E1" font-family="Arial" font-size="14">Aprobación</text>
    <text x="24" y="114" fill="#CBD5E1" font-family="Arial" font-size="14">trazable</text>
    <circle cx="112" cy="170" r="22" fill="#0F3C4C" stroke="#22D3EE"/><path d="M102 170l7 7 15-18" stroke="#67E8F9" stroke-width="5" stroke-linecap="round" stroke-linejoin="round"/>
  </g>
  <g transform="translate(574 170)">
    <rect width="150" height="220" rx="24" fill="#0B1B2E" stroke="#22596A"/>
    <text x="24" y="54" fill="#67E8F9" font-family="Arial" font-size="18" font-weight="800">Ejecución</text>
    <text x="24" y="92" fill="#CBD5E1" font-family="Arial" font-size="14">Modo según</text>
    <text x="24" y="114" fill="#CBD5E1" font-family="Arial" font-size="14">autorización</text>
    <circle cx="112" cy="170" r="22" fill="#0F3C4C" stroke="#22D3EE"/><path d="M102 170l7 7 15-18" stroke="#67E8F9" stroke-width="5" stroke-linecap="round" stroke-linejoin="round"/>
  </g>
  <g transform="translate(740 170)">
    <rect width="110" height="220" rx="24" fill="#0B1B2E" stroke="#22596A"/>
    <text x="22" y="54" fill="#67E8F9" font-family="Arial" font-size="18" font-weight="800">Reporte</text>
    <text x="22" y="92" fill="#CBD5E1" font-family="Arial" font-size="14">Evidencia</text>
    <text x="22" y="114" fill="#CBD5E1" font-family="Arial" font-size="14">y acción</text>
    <circle cx="70" cy="170" r="22" fill="#0F3C4C" stroke="#22D3EE"/><path d="M60 170l7 7 15-18" stroke="#67E8F9" stroke-width="5" stroke-linecap="round" stroke-linejoin="round"/>
  </g>
  <path d="M226 280h16M392 280h16M558 280h16M724 280h16" stroke="#67E8F9" stroke-opacity=".52" stroke-width="2"/>
</svg>
